<svg id="Layer_1" data-name="Layer 1" xmlns="http://www.w3.org/2000/svg" viewBox="0 0 1332.56 233.57"><defs><style>.cls-1{fill:#fff;}</style></defs><title>Untitled-1</title><path class="cls-1" d="M514,871a85.21,85.21,0,0,1,17.37,25.35,75.62,75.62,0,0,1,6.6,31.5,78.11,78.11,0,0,1-6.45,31.66A82.47,82.47,0,0,1,488,1002.82a79.08,79.08,0,0,1-31.81,6.46H421.77v63.61H378.44V858.69l14.75-4.92a24.29,24.29,0,0,1,4.46-1.54c2.76-.81,6.4-1.69,10.91-2.61s9.83-1.79,16-2.61a151.45,151.45,0,0,1,20-1.23q3.38,0,6.91.15t7.22.46a100.25,100.25,0,0,1,30,7.69A83.28,83.28,0,0,1,514,871Zm-57.78,95a36.27,36.27,0,0,0,14.91-3.07,41.33,41.33,0,0,0,12.14-8.14,36.14,36.14,0,0,0,8.14-12,37.87,37.87,0,0,0,2.92-14.91q0-15.36-10.75-25.5a43,43,0,0,0-12.6-8.61,46.54,46.54,0,0,0-16.29-4c-1.65-.21-3.34-.36-5.07-.46s-3.44-.16-5.07-.16a112.81,112.81,0,0,0-12.14.62q-5.7.62-10.61,1.53v74.68Z" transform="translate(-378.44 -845.78)"/><path class="cls-1" d="M547.16,999.75V926a76.8,76.8,0,0,1,6.3-31,80.45,80.45,0,0,1,42.26-42.26,77,77,0,0,1,31-6.3,78,78,0,0,1,31.19,6.3A79.95,79.95,0,0,1,700.36,895a76.8,76.8,0,0,1,6.3,31v73.76a76.8,76.8,0,0,1-6.3,31A79.95,79.95,0,0,1,658,1073.05a78,78,0,0,1-31.19,6.3,77,77,0,0,1-31-6.3,80.45,80.45,0,0,1-42.26-42.26A76.8,76.8,0,0,1,547.16,999.75ZM590.5,926v73.76a34.27,34.27,0,0,0,2.91,14,37.25,37.25,0,0,0,19.37,19.37,34.28,34.28,0,0,0,14,2.92,35.09,35.09,0,0,0,14.29-2.92,37.79,37.79,0,0,0,11.53-7.84A36,36,0,0,0,663,999.75V926a36,36,0,0,0-10.44-25.51,37.94,37.94,0,0,0-11.53-7.83,34.92,34.92,0,0,0-14.29-2.92,34.12,34.12,0,0,0-14,2.92A37.19,37.19,0,0,0,593.41,912,34.3,34.3,0,0,0,590.5,926Z" transform="translate(-378.44 -845.78)"/><path class="cls-1" d="M883.07,927.83a78.15,78.15,0,0,1-11.53,41.8,81.77,81.77,0,0,1-30.27,29.2l41.8,74.06H836.36L777,965.94h24.28a36.27,36.27,0,0,0,14.91-3.07,41.15,41.15,0,0,0,12.13-8.14,36,36,0,0,0,8.15-12,38.05,38.05,0,0,0,2.92-14.91q0-15.36-10.76-25.5a42.79,42.79,0,0,0-12.6-8.61,46.49,46.49,0,0,0-16.29-4c-1.64-.21-3.33-.36-5.07-.46s-3.43-.16-5.07-.16a113.08,113.08,0,0,0-12.14.62q-5.68.62-10.6,1.53v181.63H723.57V858.69l14.75-4.92a24.35,24.35,0,0,1,4.45-1.54c2.77-.81,6.41-1.69,10.91-2.61s9.84-1.79,16-2.61a151.56,151.56,0,0,1,20-1.23q3.38,0,6.92.15t7.22.46a100.11,100.11,0,0,1,30,7.69A83.32,83.32,0,0,1,859.1,871a85.19,85.19,0,0,1,17.36,25.35A75.47,75.47,0,0,1,883.07,927.83Z" transform="translate(-378.44 -845.78)"/><path class="cls-1" d="M988.79,847.16q11.37,1.38,21.05,3.23t17.52,4.15q7.83,2.3,12.75,4.15v31H986.33v183.16H943V889.73H889.21v-31q4.92-1.85,12.76-4.15t17.52-4.15q9.68-1.85,21-3.23a193.68,193.68,0,0,1,23.36-1.38h1.53A193.8,193.8,0,0,1,988.79,847.16Z" transform="translate(-378.44 -845.78)"/><path class="cls-1" d="M1104.19,899.1a26.12,26.12,0,0,0-7.84,19.21v26.74h60.24v42.41h-60.24v85.43h-42.41V918.31a68.14,68.14,0,0,1,5.38-27,70,70,0,0,1,36.88-37,67.09,67.09,0,0,1,26.89-5.38h58.7v42.41h-58.7A25.76,25.76,0,0,0,1104.19,899.1Z" transform="translate(-378.44 -845.78)"/><path class="cls-1" d="M1187.93,999.75V926a76.8,76.8,0,0,1,6.3-31,80.45,80.45,0,0,1,42.26-42.26,76.93,76.93,0,0,1,31-6.3,78,78,0,0,1,31.19,6.3A80,80,0,0,1,1341.14,895a77,77,0,0,1,6.29,31v73.76a77,77,0,0,1-6.29,31,80,80,0,0,1-42.42,42.26,78,78,0,0,1-31.19,6.3,76.93,76.93,0,0,1-31-6.3,80.45,80.45,0,0,1-42.26-42.26A76.8,76.8,0,0,1,1187.93,999.75ZM1231.26,926v73.76a34,34,0,0,0,2.93,14,37.19,37.19,0,0,0,19.36,19.37,34.28,34.28,0,0,0,14,2.92,35.09,35.09,0,0,0,14.29-2.92,37.91,37.91,0,0,0,11.53-7.84,36.08,36.08,0,0,0,10.45-25.51V926a36.08,36.08,0,0,0-10.45-25.51,38.06,38.06,0,0,0-11.53-7.83,34.92,34.92,0,0,0-14.29-2.92,34.12,34.12,0,0,0-14,2.92A37.12,37.12,0,0,0,1234.19,912,34,34,0,0,0,1231.26,926Z" transform="translate(-378.44 -845.78)"/><path class="cls-1" d="M1474.36,1030.48v42.41h-36.27a71,71,0,0,1-28.73-5.83,74.77,74.77,0,0,1-39.19-39.19,71,71,0,0,1-5.84-28.74V858.38a114.71,114.71,0,0,1,18-5.53,211.39,211.39,0,0,1,25.36-4v151.52a28.19,28.19,0,0,0,2.46,11.67,31.83,31.83,0,0,0,6.6,9.69,30.11,30.11,0,0,0,21.36,8.75Z" transform="translate(-378.44 -845.78)"/><path class="cls-1" d="M1491.26,1072.89V858.07a129.13,129.13,0,0,1,17.82-5.22,218.38,218.38,0,0,1,25.51-4v224Z" transform="translate(-378.44 -845.78)"/><path class="cls-1" d="M1551.49,999.75V926a76.8,76.8,0,0,1,6.3-31,80.45,80.45,0,0,1,42.26-42.26,77,77,0,0,1,31-6.3,78.08,78.08,0,0,1,31.2,6.3A80,80,0,0,1,1704.7,895a76.8,76.8,0,0,1,6.3,31v73.76a76.8,76.8,0,0,1-6.3,31,80,80,0,0,1-42.41,42.26,78.08,78.08,0,0,1-31.2,6.3,77,77,0,0,1-31-6.3,80.45,80.45,0,0,1-42.26-42.26A76.8,76.8,0,0,1,1551.49,999.75ZM1594.83,926v73.76a34.12,34.12,0,0,0,2.92,14,37.28,37.28,0,0,0,19.36,19.37,34.31,34.31,0,0,0,14,2.92,35.13,35.13,0,0,0,14.3-2.92,37.74,37.74,0,0,0,11.52-7.84,36.08,36.08,0,0,0,10.45-25.51V926a36.08,36.08,0,0,0-10.45-25.51,37.89,37.89,0,0,0-11.52-7.83,35,35,0,0,0-14.3-2.92,34.15,34.15,0,0,0-14,2.92A37.22,37.22,0,0,0,1597.75,912,34.15,34.15,0,0,0,1594.83,926Z" transform="translate(-378.44 -845.78)"/></svg>